{"title":"Ice.Age.The.Great.Egg-Scapade.2016.WEBRip.480p.x264.AAC-VYTO [P2","uid":13996739,"size":297763356,"categoryP":"video","categoryS":"movies","magnet":"?xt=urn:btih:be82ab868d2e9f6e99cfda374947e8088f5f2a7a&amp;dn=Ice.Age.The.Great.Egg-Scapade.2016.WEBRip.480p.x264.AAC-VYTO+%5BP2&amp;tr=udp%3A%2F%2Ftracker.leechers-paradise.org%3A6969&amp;tr=udp%3A%2F%2Fzer0day.ch%3A1337&amp;tr=udp%3A%2F%2Fopen.demonii.com%3A1337&amp;tr=udp%3A%2F%2Ftracker.coppersurfer.tk%3A6969&amp;tr=udp%3A%2F%2Fexodus.desync.com%3A6969","seeders":4,"leechers":2,"uploader":"VYTOP2PDL","files":7,"time":1458747532,"description":"____    ____ ____    ____ .___________.  ______   \r\n     /   /      /   / |           | /  __    \r\n    /   /      /   /  `---|  |----`|  |  |  | \r\n        /     _    _/       |  |     |  |  |  | \r\n       /        |  |         |  |     |  `--'  | \r\n    __/         |__|         |__|      ______/  \r\n                                                  \r\nPresenting Small Encodes with quality for years!\r\n                                                                                                   \r\n                                                                                                   \r\n\r\n\r\nIce.Age.The.Great.Egg-Scapade.2016.WEBRip.480p.x264.AAC-VYTO\r\n\r\n\r\nGenre: Animation, Adventure, Comedy \nhttp://www.imdb.com/title/tt5480340/\r\n\r\n\r\nFormat                                   : MPEG-4\r\nFile size                                : 276 MiB\r\nDuration                                 : 1h 13mn\r\nOverall bit rate                         : 522 Kbps\r\n\r\nVideo\r\nFormat                                   : AVC\r\nBit rate                                 : 488 Kbps\r\nWidth                                    : 720 pixels\r\nHeight                                   : 400 pixels\r\nDisplay aspect ratio                     : 16:9\r\nFrame rate mode                          : Constant\r\nFrame rate                               : 23.976 fps\r\nBit depth                                : 8 bits\r\nStream size                              : 258 MiB (93%)\r\nWriting library                          : x264 \r\n\r\nAudio\r\nFormat                                   : AAC\r\nBit rate mode                            : Variable\r\nBit rate                                 : 31.9 Kbps\r\nChannel(s)                               : 2 channels\r\nChannel positions                        : Front: L R\r\nSampling rate                            : 48.0 KHz\r\nStream size                              : 16.5 MiB (6%)\r\nLanguage                                 : English\r\n\r\nSubtitle                                 : Yes (English)\r\n\r\nScreen Shot: (Click to view)\r\n \nhttp://ititli.com/XGz \nhttp://ititli.com/XGI \nhttp://ititli.com/XGO \nhttp://ititli.com/XH9 \nhttp://ititli.com/XHX \nhttp://ititli.com/XHq \nhttp://ititli.com/XHr \nhttp://ititli.com/XH1 \nhttp://ititli.com/XHTs\r\n\r\n----------------------------------------------------------------------------------------------------\r\n\r\n\r\nEncoder Notes: Looking For Early Access To Anything You Can Provide WEBDL, DVDScr, DVDR, BluRay,\r\nDirect Audio, Music Releases and Seedboxes. If You Got anything to offer please contact us.\r\n\r\nSupport us by donating BC - 1FgwdzPsd1y25Gea8wP1qni35uGCtmkRCD\r\n\r\nFind us and join us!","torrent":{"xt":"urn:btih:be82ab868d2e9f6e99cfda374947e8088f5f2a7a","amp;dn":"Ice.Age.The.Great.Egg-Scapade.2016.WEBRip.480p.x264.AAC-VYTO+%5BP2","amp;tr":["udp%3A%2F%2Ftracker.leechers-paradise.org%3A6969","udp%3A%2F%2Fzer0day.ch%3A1337","udp%3A%2F%2Fopen.demonii.com%3A1337","udp%3A%2F%2Ftracker.coppersurfer.tk%3A6969","udp%3A%2F%2Fexodus.desync.com%3A6969"],"infoHash":"be82ab868d2e9f6e99cfda374947e8088f5f2a7a","infoHashBuffer":{"type":"Buffer","data":[190,130,171,134,141,46,159,110,153,207,218,55,73,71,232,8,143,95,42,122]},"announce":[],"urlList":[]}}